<svg style="position: absolute; width: 0; height: 0; overflow: hidden;" version="1.1" xmlns="http://www.w3.org/2000/svg" xmlns:xlink="http://www.w3.org/1999/xlink">
<defs>
<symbol id="icon-nuclear" viewBox="0 0 30 32">
<title>nuclear</title>
<path class="path1" d="M13.846 0.759c-0.328 0.164-0.841 0.513-1.087 0.759-0.636 0.574-1.744 2.605-2.195 4.021-0.205 0.615-0.39 1.149-0.41 1.19-0.021 0.021-0.492-0.041-1.046-0.144-2.38-0.472-2.338-0.472-2.338 0.062 0 0.431 0.144 0.513 1.292 0.738 1.887 0.349 1.887 0.349 1.62 1.867-0.123 0.718-0.287 1.662-0.349 2.072-0.062 0.431-0.185 0.78-0.287 0.78-0.082 0-0.78 0.513-1.538 1.149l-1.395 1.149-0.615-0.595c-0.595-0.554-2.215-2.851-2.215-3.118 0-0.062 0.267-0.246 0.595-0.39 0.821-0.369 1.313-1.19 1.313-2.215 0-2.38-2.708-3.385-4.308-1.641-0.513 0.554-0.677 0.923-0.677 1.497 0 0.944 0.636 2.031 1.333 2.359 0.308 0.144 0.8 0.738 1.149 1.415 0.349 0.636 1.087 1.662 1.62 2.277l1.005 1.128-1.128 1.354c-2.564 3.097-2.872 6.010-0.738 7.097 1.333 0.677 3.836 0.718 6.297 0.103 0.39-0.103 0.492 0.041 0.944 1.374 0.513 1.538 0.697 1.744 1.19 1.436 0.246-0.164 0.226-0.41-0.185-1.641-0.267-0.779-0.451-1.477-0.41-1.518 0.062-0.062 0.964-0.431 2.010-0.841 1.723-0.697 1.949-0.738 2.359-0.472 0.246 0.164 1.067 0.492 1.846 0.738 0.759 0.267 1.374 0.492 1.374 0.513 0 0.287-0.923 2.626-1.354 3.405l-0.554 1.005-0.513-0.39c-1.087-0.862-3.118-0.328-3.651 0.923-0.8 1.928 0.267 3.59 2.297 3.59 0.8 0 1.046-0.103 1.641-0.697s0.697-0.841 0.697-1.62c0-0.513 0.103-1.005 0.205-1.067 0.287-0.185 1.415-2.421 1.846-3.692 0.39-1.149 0.205-1.108 2.79-0.718 6.154 0.903 7.692-3.159 3.097-8.144l-0.595-0.636 1.026-1.292c0.8-0.985 1.005-1.354 0.82-1.559-0.308-0.369-0.718-0.328-1.026 0.103-0.144 0.226-0.574 0.738-0.944 1.149l-0.656 0.759-1.6-1.231-1.579-1.231-0.349-2.010c-0.246-1.477-0.287-2.051-0.103-2.154 0.349-0.205 2.626-0.574 3.59-0.574 0.862 0 0.862 0 0.862 0.759 0 1.723 1.579 2.995 3.097 2.544 1.805-0.554 2.421-2.605 1.19-4-0.841-0.964-1.805-1.149-2.933-0.574-0.656 0.308-1.251 0.41-2.605 0.431-0.964 0-2.174 0.103-2.646 0.205-1.067 0.246-1.149 0.205-1.333-0.636-0.267-1.19-1.292-3.2-2.092-4.082-1.231-1.354-2.441-1.723-3.651-1.067zM16.451 2.195c0.8 0.78 1.538 2.072 1.99 3.549l0.39 1.272-0.636 0.267c-0.369 0.144-1.231 0.492-1.949 0.779l-1.272 0.513-1.805-0.738c-0.985-0.41-1.826-0.759-1.887-0.821-0.185-0.123 0.841-2.728 1.477-3.774 1.149-1.846 2.462-2.236 3.692-1.046zM3.385 6.687c0.533 0.226 0.923 1.272 0.677 1.949-0.267 0.78-1.231 1.108-2.010 0.697-0.964-0.492-1.108-1.477-0.308-2.256 0.492-0.513 1.005-0.636 1.641-0.39zM28.267 6.913c0.246 0.205 0.492 0.615 0.574 0.923 0.103 0.451 0 0.677-0.492 1.19-0.759 0.738-1.333 0.78-1.99 0.103-1.374-1.354 0.451-3.446 1.908-2.215zM12.677 8.697l1.087 0.472-1.662 0.944-1.682 0.944 0.144-0.964c0.308-2.154 0.328-2.174 2.113-1.395zM19.262 8.964c0.246 0.882 0.287 1.908 0.082 1.908-0.082 0-0.779-0.39-1.559-0.862l-1.415-0.862 0.985-0.451c1.436-0.656 1.662-0.615 1.908 0.267zM17.087 10.81c2.81 1.579 2.667 1.415 2.749 3.159 0.062 0.841 0.041 2.072-0.041 2.769l-0.123 1.231-1.785 1.046c-2.851 1.682-2.708 1.662-4.103 0.923-0.677-0.328-1.744-0.944-2.38-1.354l-1.149-0.738v-2.626c0-2.256 0.062-2.687 0.369-2.954 0.595-0.533 4.021-2.421 4.369-2.421 0.185 0 1.128 0.431 2.092 0.964zM9.19 16.103l-0.062 0.903-1.067-0.82c-0.595-0.451-1.087-0.903-1.087-1.005 0-0.082 0.492-0.554 1.087-1.026l1.067-0.862 0.062 0.944c0.041 0.513 0.041 1.354 0 1.867zM22.051 14.256l1.026 0.923-1.026 0.903c-0.554 0.513-1.026 0.903-1.046 0.882-0.123-0.185-0.226-3.631-0.123-3.631 0.082 0 0.615 0.41 1.169 0.923zM7.754 17.251c1.579 1.251 1.579 1.272 1.703 2.421 0.082 0.636 0.205 1.538 0.287 1.99 0.164 1.005 0.205 0.985-2.113 1.313-4.287 0.595-5.785-1.149-3.754-4.349 0.574-0.882 2.010-2.626 2.195-2.626 0.062 0 0.8 0.574 1.682 1.251zM25.19 17.272c1.026 1.231 1.887 2.995 1.887 3.877 0 1.6-2.031 2.297-5.108 1.744-0.923-0.164-1.744-0.328-1.785-0.369-0.020-0.041 0.103-1.005 0.308-2.113l0.349-2.051 0.985-0.738c0.533-0.41 1.169-0.944 1.415-1.19 0.246-0.226 0.533-0.431 0.656-0.431s0.697 0.574 1.292 1.272zM12.677 20.513c0.472 0.267 0.862 0.554 0.862 0.636 0 0.164-2.462 1.067-2.585 0.964-0.103-0.103-0.492-2.154-0.492-2.564 0-0.246 0.123-0.226 0.677 0.103 0.349 0.205 1.046 0.615 1.538 0.862zM19.385 20.615c-0.123 0.738-0.287 1.395-0.369 1.456-0.123 0.144-2.605-0.738-2.605-0.923 0.020-0.123 2.831-1.785 3.097-1.846 0.082 0 0.020 0.574-0.123 1.313zM16 28.308c0.492 0.492 0.533 1.579 0.062 2.092-0.451 0.492-1.579 0.492-2.113-0.041-0.226-0.226-0.41-0.677-0.41-1.026 0-1.231 1.6-1.887 2.462-1.026z"></path>
<path class="path2" d="M13.641 12.39c-1.518 0.677-2.195 2.892-1.292 4.226 1.067 1.579 2.523 2.010 4.082 1.231 1.046-0.554 1.62-1.477 1.62-2.667 0-2.277-2.297-3.733-4.41-2.79zM16.431 13.723c0.636 0.636 0.8 1.703 0.39 2.503-0.267 0.492-1.251 1.005-1.928 1.005-0.636 0-1.682-0.862-1.846-1.559-0.513-1.969 1.949-3.385 3.385-1.949z"></path>
</symbol>
</defs>
</svg>
